<?xml version="1.0" standalone="no"?>
<!DOCTYPE svg PUBLIC "-//W3C//DTD SVG 20010904//EN"
 "http://www.w3.org/TR/2001/REC-SVG-20010904/DTD/svg10.dtd">
<svg version="1.0" xmlns="http://www.w3.org/2000/svg"
 width="512.000000pt" height="512.000000pt" viewBox="0 0 512.000000 512.000000"
 preserveAspectRatio="xMidYMid meet">
<metadata>
Created by potrace 1.16, written by Peter Selinger 2001-2019
</metadata>
<g transform="translate(0.000000,512.000000) scale(0.100000,-0.100000)"
fill="#000000" stroke="none">
<path d="M1850 5106 c-424 -89 -744 -415 -825 -839 -11 -58 -15 -150 -15 -348
l0 -269 -183 0 c-177 0 -185 -1 -235 -26 -59 -29 -105 -80 -127 -139 -16 -44
-356 -3115 -357 -3225 -1 -107 55 -195 152 -239 45 -20 53 -21 2328 -21 2513
0 2315 -5 2377 60 58 60 58 81 6 553 -52 470 -51 467 -118 467 -36 0 -83 -36
-83 -64 0 -9 20 -199 45 -423 25 -225 45 -409 45 -410 0 -1 -7 -9 -16 -17 -14
-14 -126 -16 -1089 -16 -1200 0 -1112 -5 -1101 69 3 20 53 470 111 1001 88
811 108 967 122 977 25 19 1711 19 1736 1 14 -11 25 -87 65 -447 46 -417 49
-434 72 -453 33 -27 87 -21 112 13 20 26 19 28 -27 460 -43 400 -49 438 -73
488 -21 42 -37 60 -71 78 l-44 23 -438 0 -439 0 -4 23 c-3 12 -30 254 -61 537
-31 283 -60 532 -66 552 -15 57 -68 119 -128 150 -53 28 -55 28 -237 28 l-184
0 0 264 c0 344 -20 457 -110 636 -74 147 -210 303 -339 390 -87 58 -230 124
-326 151 -102 28 -372 36 -475 15z m430 -170 c260 -67 502 -284 599 -535 53
-137 61 -204 61 -491 l0 -260 -373 0 -374 0 -22 -24 c-19 -20 -22 -32 -17 -59
12 -63 3 -62 415 -67 l376 -5 2 -135 3 -135 -52 -30 c-72 -41 -111 -105 -116
-190 -5 -78 8 -120 54 -174 67 -78 159 -106 257 -77 144 42 216 210 148 344
-21 41 -78 96 -117 114 -24 11 -24 14 -24 150 l0 138 158 0 c105 0 165 -4 181
-13 59 -30 59 -29 116 -553 30 -269 56 -508 59 -531 l6 -43 -378 0 c-347 0
-380 -2 -418 -19 -53 -24 -91 -74 -104 -137 -13 -60 -220 -1952 -220 -2011 l0
-43 -1071 0 c-1187 0 -1121 -4 -1153 65 -15 31 -7 116 158 1619 138 1256 177
1592 191 1612 29 45 70 54 235 54 l150 0 0 -139 0 -139 -30 -12 c-46 -19 -115
-102 -130 -155 -57 -204 159 -382 348 -286 165 84 177 327 21 424 l-49 30 0
138 0 139 369 0 c337 0 371 2 390 18 32 26 37 72 11 105 l-21 27 -375 0 -374
0 0 259 c0 182 4 281 14 333 74 385 407 687 791 717 100 8 220 -2 305 -23z
m-1156 -1866 c33 -12 59 -63 51 -101 -9 -38 -49 -69 -92 -69 -80 0 -114 102
-52 154 33 28 53 32 93 16z m1939 -2 c34 -18 46 -39 47 -81 0 -84 -100 -120
-155 -55 -22 26 -26 39 -21 67 10 64 74 99 129 69z"/>
<path d="M3127 2086 c-163 -59 -211 -273 -87 -393 18 -17 45 -37 61 -43 l29
-12 0 -242 c0 -272 6 -313 67 -436 72 -143 236 -276 398 -321 76 -21 266 -18
335 5 170 57 302 167 378 312 64 124 72 172 72 445 l0 237 30 12 c42 17 104
90 118 138 55 184 -107 352 -289 298 -125 -36 -195 -167 -159 -297 13 -45 79
-122 120 -139 l30 -12 0 -212 c0 -308 -24 -392 -144 -512 -227 -226 -609 -166
-749 118 -47 96 -57 163 -57 405 0 196 1 202 21 208 35 11 101 77 120 120 11
23 19 64 19 96 0 162 -161 279 -313 225z m125 -160 c26 -19 39 -62 28 -90 -11
-29 -47 -56 -76 -56 -29 0 -70 34 -78 65 -7 27 15 80 36 88 25 10 73 6 90 -7z
m1093 8 c23 -9 48 -62 41 -90 -13 -50 -70 -77 -121 -58 -25 10 -47 62 -40 95
11 48 67 73 120 53z"/>
</g>
</svg>
